<svg width="35" height="35" viewBox="0 0 54 53" fill="none" xmlns="http://www.w3.org/2000/svg">
<path d="M34.1865 36H19.3037V32.7773L26.1592 25.5703C27.8486 23.6465 28.6934 22.1182 28.6934 20.9854C28.6934 20.0674 28.4932 19.3691 28.0928 18.8906C27.6924 18.4121 27.1113 18.1729 26.3496 18.1729C25.5977 18.1729 24.9873 18.4951 24.5186 19.1396C24.0498 19.7744 23.8154 20.5703 23.8154 21.5273H18.8643C18.8643 20.2188 19.1914 19.0127 19.8457 17.9092C20.5 16.7959 21.4082 15.9268 22.5703 15.3018C23.7324 14.6768 25.0312 14.3643 26.4668 14.3643C28.7715 14.3643 30.5439 14.8965 31.7842 15.9609C33.0342 17.0254 33.6592 18.5537 33.6592 20.5459C33.6592 21.3857 33.5029 22.2061 33.1904 23.0068C32.8779 23.7979 32.3896 24.6328 31.7256 25.5117C31.0713 26.3809 30.0117 27.5479 28.5469 29.0127L25.793 32.1914H34.1865V36Z" fill="white"/>
<circle cx="29" cy="28" r="23" stroke="#7DF9FF" stroke-width="4" stroke-linecap="round" stroke-linejoin="round"/>
<circle cx="25" cy="25" r="23" stroke="#EA0096" stroke-width="4" stroke-linecap="round" stroke-linejoin="round"/>
<circle cx="27" cy="25" r="23" stroke="white" stroke-width="4" stroke-linecap="round" stroke-linejoin="round"/>
</svg>
