<svg width="35" height="35" viewBox="0 0 54 53" fill="none" xmlns="http://www.w3.org/2000/svg">
<path d="M23.8154 23.2705H26.1445C27.9902 23.2705 28.9131 22.3672 28.9131 20.5605C28.9131 19.8574 28.6934 19.2861 28.2539 18.8467C27.8145 18.3975 27.1943 18.1729 26.3936 18.1729C25.7393 18.1729 25.168 18.3633 24.6797 18.7441C24.2012 19.125 23.9619 19.5986 23.9619 20.165H19.0254C19.0254 19.042 19.3379 18.041 19.9629 17.1621C20.5879 16.2832 21.4521 15.5996 22.5557 15.1113C23.6689 14.6133 24.8896 14.3643 26.2178 14.3643C28.5908 14.3643 30.4561 14.9062 31.8135 15.9902C33.1709 17.0742 33.8496 18.5635 33.8496 20.458C33.8496 21.376 33.5664 22.2451 33 23.0654C32.4434 23.876 31.6279 24.5352 30.5537 25.043C31.6865 25.4531 32.5752 26.0781 33.2197 26.918C33.8643 27.748 34.1865 28.7783 34.1865 30.0088C34.1865 31.9131 33.4541 33.4365 31.9893 34.5791C30.5244 35.7217 28.6006 36.293 26.2178 36.293C24.8213 36.293 23.5225 36.0293 22.3213 35.502C21.1299 34.9648 20.2266 34.2275 19.6113 33.29C18.9961 32.3428 18.6885 31.2686 18.6885 30.0674H23.6543C23.6543 30.7217 23.918 31.2881 24.4453 31.7666C24.9727 32.2451 25.6221 32.4844 26.3936 32.4844C27.2627 32.4844 27.9561 32.2451 28.4736 31.7666C28.9912 31.2783 29.25 30.6582 29.25 29.9062C29.25 28.832 28.9814 28.0703 28.4443 27.6211C27.9072 27.1719 27.165 26.9473 26.2178 26.9473H23.8154V23.2705Z" fill="white"/>
<circle cx="29" cy="28" r="23" stroke="#7DF9FF" stroke-width="4" stroke-linecap="round" stroke-linejoin="round"/>
<circle cx="25" cy="25" r="23" stroke="#EA0096" stroke-width="4" stroke-linecap="round" stroke-linejoin="round"/>
<circle cx="27" cy="25" r="23" stroke="white" stroke-width="4" stroke-linecap="round" stroke-linejoin="round"/>
</svg>
